<svg xmlns="http://www.w3.org/2000/svg" id="SvgjsSvg510922" width="4096" height="1829.6161489519995" version="1.1" xmlns:xlink="http://www.w3.org/1999/xlink" xmlns:svgjs="http://svgjs.com/svgjs"><defs id="SvgjsDefs510923"></defs><g id="SvgjsG510924" transform="translate(328, 328) scale(34.4)" opacity="1"><defs id="SvgjsDefs233517"></defs><g id="SvgjsG233518" transform="scale(0.21645021645021645)" opacity="1"><g id="SvgjsG233519" class="MTuUSZtfH" transform="translate(0, 0) scale(1)" light-content="false" fill="#ffffff"><path d="M0 0 h 157.61937814413486 v 20 h -157.61937814413486 Z M0 0 h 20 v 157.61937814413486 h -20 Z M157.61937814413486 157.61937814413486 h -157.61937814413486 v -20 h 157.61937814413486 Z M157.61937814413486 157.61937814413486 h -20 v -31.523875628826964 h 20 ZM157.61937814413486 31.52387562882697 h -20 v -31.52387562882697 h 20 Z" fill-rule="nonzero"></path></g><g id="SvgjsG233520" class="text" transform="translate(252.87852608731444, 109.65177180287316) scale(1)" light-content="false" fill="#ffffff"><path d="M-197.64 0L-197.64 -53.31L-209.13 -53.31L-209.13 0ZM-197.64 -62.25L-197.64 -68.98L-209.13 -68.98L-209.13 -62.25Z M-170.99 -48.89L-170.99 -53.31L-182.47 -53.31L-182.47 0L-170.99 0L-170.99 -44.48C-170.16 -44.82 -169.2 -45.2 -168.1 -45.61C-167.01 -46.03 -165.86 -46.42 -164.65 -46.8C-163.44 -47.18 -162.23 -47.49 -161 -47.73C-159.77 -47.98 -158.61 -48.1 -157.52 -48.1C-156.31 -48.1 -155.32 -47.9 -154.55 -47.51C-153.77 -47.11 -153.17 -46.59 -152.74 -45.95C-152.3 -45.31 -152.01 -44.6 -151.86 -43.83C-151.71 -43.06 -151.63 -42.27 -151.63 -41.48L-151.63 0L-140.15 0L-140.15 -44.99C-138.26 -45.74 -136.29 -46.45 -134.23 -47.11C-132.18 -47.77 -129.86 -48.1 -127.3 -48.1C-126.02 -48.1 -124.96 -47.92 -124.13 -47.56C-123.3 -47.21 -122.64 -46.71 -122.15 -46.06C-121.66 -45.42 -121.31 -44.67 -121.1 -43.8C-120.9 -42.93 -120.79 -41.97 -120.79 -40.91L-120.79 0L-109.3 0L-109.3 -41.37C-109.3 -43.82 -109.54 -45.88 -110.01 -47.54C-110.48 -49.2 -111.18 -50.53 -112.11 -51.55C-113.03 -52.57 -114.18 -53.3 -115.56 -53.73C-116.93 -54.17 -118.53 -54.38 -120.34 -54.38C-122.68 -54.38 -125.53 -53.97 -128.88 -53.14C-132.24 -52.31 -136.34 -50.82 -141.16 -48.67C-141.39 -49.35 -141.75 -50.04 -142.24 -50.73C-142.73 -51.43 -143.37 -52.04 -144.16 -52.57C-144.96 -53.1 -145.93 -53.53 -147.08 -53.87C-148.23 -54.21 -149.6 -54.38 -151.18 -54.38C-153.37 -54.38 -156.07 -53.97 -159.27 -53.14C-162.48 -52.31 -166.38 -50.89 -170.99 -48.89Z M-75.92 -49.46C-73.05 -49.46 -70.79 -49.23 -69.15 -48.78C-67.51 -48.33 -66.3 -47.75 -65.5 -47.05C-64.71 -46.36 -64.22 -45.56 -64.03 -44.68C-63.84 -43.79 -63.75 -42.91 -63.75 -42.05L-63.75 -34.97C-65.94 -36.26 -68.23 -37.22 -70.62 -37.86C-73.02 -38.5 -75.16 -38.82 -77.05 -38.82C-80.52 -38.82 -83.61 -38.4 -86.33 -37.55C-89.04 -36.7 -91.35 -35.45 -93.23 -33.81C-95.12 -32.17 -96.56 -30.14 -97.56 -27.73C-98.56 -25.31 -99.06 -22.52 -99.06 -19.35C-99.06 -16.79 -98.53 -14.35 -97.48 -12.03C-96.42 -9.71 -94.76 -7.65 -92.5 -5.86C-90.23 -4.07 -87.32 -2.64 -83.75 -1.58C-80.19 -0.53 -75.88 0 -70.82 0L-52.26 0L-52.26 -41.82C-52.26 -44.23 -52.53 -46.24 -53.08 -47.85C-53.63 -49.45 -54.62 -50.73 -56.05 -51.7C-57.49 -52.66 -59.48 -53.35 -62.02 -53.76C-64.57 -54.18 -67.82 -54.38 -71.78 -54.38C-74.88 -54.38 -78.15 -54.13 -81.6 -53.62C-85.05 -53.11 -88.37 -52.27 -91.53 -51.1L-90.18 -47.42C-89.23 -47.69 -88.29 -47.94 -87.35 -48.19C-86.4 -48.43 -85.39 -48.65 -84.29 -48.84C-83.2 -49.03 -81.98 -49.18 -80.64 -49.29C-79.3 -49.4 -77.73 -49.46 -75.92 -49.46ZM-63.75 -4.64L-71.28 -4.64C-73.95 -4.64 -76.22 -4.93 -78.07 -5.52C-79.91 -6.1 -81.44 -6.87 -82.65 -7.81C-83.86 -8.75 -84.79 -9.8 -85.45 -10.95C-86.11 -12.1 -86.6 -13.24 -86.92 -14.37C-87.24 -15.51 -87.43 -16.56 -87.49 -17.54C-87.54 -18.52 -87.57 -19.32 -87.57 -19.92C-87.57 -22.03 -87.32 -23.96 -86.81 -25.69C-86.3 -27.43 -85.55 -28.92 -84.57 -30.16C-83.59 -31.41 -82.38 -32.37 -80.92 -33.05C-79.47 -33.73 -77.8 -34.07 -75.92 -34.07C-73.54 -34.07 -71.37 -33.8 -69.41 -33.28C-67.45 -32.75 -65.56 -31.94 -63.75 -30.84Z M-6.93 0L0.37 0L0.37 7.98C0.37 10.88 -0.69 13.14 -2.8 14.74C-4.91 16.35 -8.29 17.15 -12.93 17.15C-16.06 17.15 -18.9 16.97 -21.45 16.61C-23.99 16.25 -26.53 15.66 -29.06 14.83L-30.59 19.35C-28.66 19.92 -26.89 20.4 -25.27 20.8C-23.65 21.19 -22 21.51 -20.34 21.76C-18.68 22 -16.89 22.18 -14.97 22.3C-13.04 22.41 -10.82 22.47 -8.29 22.47C-4.67 22.47 -1.58 22.16 0.96 21.53C3.51 20.91 5.59 20.08 7.22 19.04C8.84 18.01 10.02 16.81 10.75 15.45C11.49 14.09 11.86 12.7 11.86 11.26L11.86 -53.31L0.37 -53.31L0.37 -50.53C-1.82 -51.82 -4.11 -52.78 -6.51 -53.42C-8.9 -54.06 -11.04 -54.38 -12.93 -54.38C-17.72 -54.38 -21.86 -53.73 -25.35 -52.43C-28.84 -51.13 -31.73 -49.34 -34.01 -47.05C-36.29 -44.77 -37.99 -42.06 -39.1 -38.91C-40.22 -35.76 -40.77 -32.33 -40.77 -28.63C-40.77 -26.14 -40.57 -23.71 -40.15 -21.33C-39.74 -18.96 -39.02 -16.7 -38 -14.57C-36.98 -12.44 -35.63 -10.49 -33.95 -8.71C-32.28 -6.94 -30.18 -5.4 -27.67 -4.1C-25.16 -2.8 -22.2 -1.79 -18.79 -1.08C-15.37 -0.36 -11.42 0 -6.93 0ZM-29.29 -28.75C-29.29 -31.5 -28.9 -34.13 -28.13 -36.64C-27.35 -39.15 -26.22 -41.37 -24.73 -43.29C-23.24 -45.22 -21.41 -46.75 -19.24 -47.9C-17.07 -49.05 -14.59 -49.63 -11.8 -49.63C-9.42 -49.63 -7.25 -49.36 -5.29 -48.81C-3.33 -48.26 -1.44 -47.44 0.37 -46.35L0.37 -4.64L-6.93 -4.64C-10.29 -4.64 -13.19 -5.06 -15.62 -5.89C-18.05 -6.72 -20.09 -7.82 -21.73 -9.2C-23.37 -10.57 -24.69 -12.12 -25.69 -13.84C-26.69 -15.55 -27.46 -17.31 -27.98 -19.1C-28.51 -20.89 -28.86 -22.63 -29.03 -24.31C-29.2 -25.98 -29.29 -27.47 -29.29 -28.75Z M48.81 -54.38C44.77 -54.38 41.2 -53.62 38.09 -52.09C34.97 -50.56 32.35 -48.53 30.22 -45.98C28.09 -43.43 26.47 -40.5 25.35 -37.18C24.24 -33.86 23.68 -30.43 23.68 -26.88C23.68 -22.62 24.27 -18.83 25.44 -15.51C26.61 -12.19 28.43 -9.38 30.9 -7.07C33.37 -4.77 36.52 -3.02 40.35 -1.81C44.18 -0.6 48.73 0 54.02 0L65.96 0L65.96 -4.64L54.19 -4.64C50.64 -4.64 47.65 -5.33 45.22 -6.71C42.78 -8.08 40.8 -9.81 39.27 -11.88C37.75 -13.96 36.64 -16.22 35.96 -18.67C35.28 -21.13 34.94 -23.41 34.94 -25.52L69.8 -25.52L69.8 -28.18C69.8 -31.69 69.44 -35.02 68.7 -38.17C67.96 -41.32 66.76 -44.1 65.08 -46.52C63.4 -48.93 61.23 -50.85 58.57 -52.26C55.91 -53.68 52.66 -54.38 48.81 -54.38ZM48.24 -49.23C50.36 -49.23 52.08 -48.77 53.42 -47.85C54.76 -46.92 55.83 -45.69 56.62 -44.14C57.41 -42.59 57.97 -40.82 58.29 -38.82C58.61 -36.82 58.81 -34.73 58.88 -32.54L58.88 -30.11L34.94 -30.11C34.98 -32.6 35.26 -35 35.76 -37.32C36.27 -39.64 37.07 -41.68 38.14 -43.43C39.22 -45.19 40.58 -46.59 42.24 -47.65C43.9 -48.71 45.9 -49.23 48.24 -49.23Z M113.38 -4.41L113.38 0L124.81 0L124.81 -53.31L113.38 -53.31L113.38 -8.83C110.17 -7.36 107.29 -6.39 104.75 -5.91C102.2 -5.44 99.97 -5.21 98.04 -5.21C96.84 -5.21 95.85 -5.42 95.1 -5.86C94.35 -6.29 93.75 -6.85 93.32 -7.53C92.88 -8.21 92.58 -8.97 92.41 -9.82C92.24 -10.67 92.16 -11.53 92.16 -12.39L92.16 -53.31L80.67 -53.31L80.67 -10.64C80.67 -6.53 81.6 -3.56 83.47 -1.73C85.34 0.1 88.04 1.02 91.59 1.02C92.99 1.02 94.46 0.93 96.01 0.76C97.55 0.59 99.2 0.3 100.96 -0.11C102.71 -0.53 104.61 -1.08 106.64 -1.78C108.68 -2.48 110.93 -3.36 113.38 -4.41Z M160.91 -48.21L160.91 -53.31L153.27 -53.31L153.27 -73.96L142.41 -70.68L142.41 -53.31L135.05 -53.31L135.05 -48.21L142.41 -48.21L142.41 0L153.27 0L153.27 -48.21Z M182.47 0L182.47 -53.31L170.99 -53.31L170.99 0ZM182.47 -62.25L182.47 -68.98L170.99 -68.98L170.99 -62.25Z M197.64 -84.15L197.64 0L209.13 0L209.13 -84.15Z"></path></g></g></g></svg>